<svg viewBox="21 23 214 192" enable-background="new 21 23 214 192" xmlns="http://www.w3.org/2000/svg" class="icon__body" height="28" width="28">
  <rect display="none" fill="#D1D3D4" width="612" height="792"></rect>
  <path d="M144.669,112.987c-2.917,3.234-4.405,6.647-4.405,10.199c0,2.184,0.734,3.93,2.202,5.299
            c1.469,1.369,3.363,2.063,5.676,2.063c2.907,0,6.29-1.23,10.14-3.671c-1.468-7.997-2.342-15.062-2.609-21.134
            C151.257,107.352,147.605,109.732,144.669,112.987z"></path>
  <path d="M164.096,103.879c0.536,6.747,1.092,12.164,1.707,16.312c3.085-3.135,6.151-8.83,9.207-17.046
            c-0.417-0.06-1.141-0.119-2.094-0.119C169.83,103.025,166.894,103.304,164.096,103.879z"></path>
  <polygon points="77.508,114.178 95.843,114.178 86.586,89.254 "></polygon>
  <path d="M223.577,23.354H32.433c-5.854,0-10.616,4.742-10.616,10.596v138.054c0,5.854,4.762,10.616,10.616,10.616
            h72.747l-9.872,32.027l70.772-32.027h57.497c5.864,0,10.606-4.763,10.606-10.616V33.949
            C234.184,28.096,229.441,23.354,223.577,23.354z M85.901,52.702h17.065L88.055,69.966h-9.624L85.901,52.702z M106.072,140.749
            l-5.873-15.26H73.34l-5.536,15.26H53.407l26.164-67.172h14.356l26.908,67.172H106.072z M195.746,134.24
            c-4.563,5.179-10.478,9.227-17.76,12.184l-4.861-8.096c14.01-5.597,20.994-12.105,20.994-19.507c0-3.115-0.973-5.993-2.917-8.612
            c-1.965-2.619-4.515-4.425-7.67-5.477c-3.998,11.668-9.188,20.142-15.587,25.439c0.536,1.746,1.31,3.453,2.342,5.14l-8.335,3.572
            l-1.319-3.394c-4.117,2.619-8.682,3.949-13.722,3.949c-4.236,0-7.839-1.469-10.735-4.366c-2.927-2.957-4.386-6.688-4.386-11.212
            c0-5.933,2.113-11.291,6.35-16.033c4.228-4.803,9.883-8.354,16.947-10.696c-0.09-2.063-0.109-5.278-0.109-9.584l-18.019,2.143
            l-1.002-8.434l19.13-2.282l0.675-11.509l8.989,0.556c-0.397,2.262-0.755,5.517-1.102,9.763l27.691-3.313l1.191,8.532l-29.161,3.751
            l0.169,8.572c2.302-0.754,5.715-1.131,10.239-1.131c7.72,0,14.466,2.262,20.211,6.807c5.725,4.544,8.603,10.259,8.603,17.125
            C202.593,123.683,200.33,129.061,195.746,134.24z"></path>
</svg>